<svg width="43" height="43" viewBox="0 0 43 43" fill="none" xmlns="http://www.w3.org/2000/svg">
<path d="M43 8.24131L33.11 0L30.3365 3.26663L40.2265 11.5079L43 8.24131ZM12.642 3.26663L9.89 0L0 8.21996L2.7735 11.4866L12.642 3.26663ZM21.5 4.56902C10.8145 4.56902 2.15 13.1733 2.15 23.7845C2.15 34.3957 10.793 43 21.5 43C32.1855 43 40.85 34.3957 40.85 23.7845C40.85 13.1733 32.1855 4.56902 21.5 4.56902ZM21.5 38.7299C13.1795 38.7299 6.45 32.0472 6.45 23.7845C6.45 15.5218 13.1795 8.83913 21.5 8.83913C29.8205 8.83913 36.55 15.5218 36.55 23.7845C36.55 32.0472 29.8205 38.7299 21.5 38.7299ZM18.361 27.0511L13.7815 22.5035L11.5025 24.7666L18.3395 31.5561L31.2395 18.7458L28.9605 16.4826L18.361 27.0511Z" fill="url(#paint0_radial)"/>
<defs>
<radialGradient id="paint0_radial" cx="0" cy="0" r="1" gradientUnits="userSpaceOnUse" gradientTransform="translate(25.2391 21.5) rotate(40.4261) scale(33.1551)">
<stop stop-color="#FFF9C8"/>
<stop offset="1" stop-color="#FFD200"/>
</radialGradient>
</defs>
</svg>
